<?xml version="1.0" encoding="utf-8"?>
<!-- Generator: Adobe Illustrator 16.0.4, SVG Export Plug-In . SVG Version: 6.00 Build 0)  -->
<!DOCTYPE svg PUBLIC "-//W3C//DTD SVG 1.1//EN" "http://www.w3.org/Graphics/SVG/1.1/DTD/svg11.dtd">
<svg version="1.1" id="Layer_1" xmlns="http://www.w3.org/2000/svg" xmlns:xlink="http://www.w3.org/1999/xlink" x="0px" y="0px"
	 width="612px" height="792px" viewBox="0 0 612 792" enable-background="new 0 0 612 792" xml:space="preserve">
<path fill="#FFFFFF" d="M406.607,343.801c-0.264-1.011-0.806-2.04-1.631-3.091c-0.447-0.598-0.973-0.523-1.572,0.225
	c-3.521,4.944-7.041,9.889-10.562,14.833c-6.068,8.54-11.911,16.051-17.529,22.531c-5.619,6.48-11.873,12.605-18.766,18.372
	c-8.166,6.818-14.046,10.226-17.642,10.226c-1.649,0-2.473-0.787-2.473-2.36c0-3.296,3.37-9.102,10.114-17.417
	c6.365-7.49,12.695-14.981,18.989-22.474c6.741-8.689,10.114-15.17,10.114-19.439c0-6.367-4.871-9.552-14.609-9.552
	c-3.479,0-7.486,0.403-11.973,1.171c-0.925-0.391-1.979-0.609-3.197-0.609c-3.807,0-8.672,1.744-14.562,5.179
	c-0.194,0.073-0.416,0.142-0.605,0.216c-0.408,0.17-0.641,0.366-0.739,0.582c-0.752,0.459-1.511,0.928-2.294,1.44
	c-6.895,4.57-13.637,10.189-20.227,16.855c5.094-7.191,7.641-12.883,7.641-17.079c0-2.473-1.236-4.4-3.709-5.788
	c-2.471-1.386-5.768-2.04-9.888-1.966c-4.871,0.068-10.548,0.748-16.946,1.975c-4.458-3.256-10.302-4.897-17.551-4.897
	c-13.934,0-27.98,3.634-42.139,10.9c-0.674,0.376-0.787,0.826-0.337,1.349c2.248,2.772,4.944,4.157,8.091,4.157
	c1.422,0,3.296-0.411,5.619-1.235c4.869-1.723,9.701-3.409,14.496-5.057c5.917-1.872,10.9-2.809,14.945-2.809
	c1.737,0,3.32,0.15,4.764,0.436c2.598,0.516,4.722,1.49,6.361,2.936c1.271,1.143,2.142,2.541,2.694,4.141
	c0.424,1.228,0.678,2.565,0.678,4.062c0,7.416-4.458,13.897-13.372,19.439c-9.14,5.695-20.227,8.691-33.261,8.989
	c5.993-7.79,10.375-13.745,13.147-17.866c2.247-3.296,3.371-5.619,3.371-6.967c0-1.798-0.674-3.557-2.022-5.281
	c-0.449-0.524-0.863-0.562-1.236-0.112c-5.77,6.592-13.448,16.444-23.036,29.553c-0.899,0-2.023-0.113-3.371-0.336
	c-0.376-0.074-0.638,0-0.788,0.224c-0.151,0.151-0.151,0.45,0,0.899c0.299,1.051,0.711,2.135,1.236,3.259
	c-6.517,8.84-11.874,16.518-16.069,23.036c-1.348,2.172-1.76,4.082-1.235,5.731c0.374,1.197,0.859,2.096,1.46,2.696
	c0.45,0.45,0.86,0.45,1.236,0c9.737-12.209,17.304-21.799,22.699-28.767c2.321,0.151,4.607,0.225,6.854,0.225
	c14.907,0,27.604-3.372,38.094-10.113c10.487-6.742,15.731-14.906,15.731-24.497c0-2.376-0.392-4.541-1.136-6.515
	c5.452-1.298,9.478-1.979,12.035-2.025c2.622,0,3.933,1.011,3.933,3.034c0,1.123-0.376,2.398-1.124,3.821
	c-2.697,5.094-9.514,14.534-20.451,28.316c-10.939,13.785-17.457,22.587-19.552,26.407c-1.275,2.248-1.573,4.382-0.899,6.405
	c0.449,1.349,1.048,2.396,1.798,3.146c0.523,0.523,1.012,0.523,1.46,0c0.599-0.674,5.395-6.666,14.384-17.979
	c8.09-10.262,15.207-18.615,21.35-25.058c4.569-4.793,10.3-9.962,17.19-15.507c5.758-4.651,10.43-7.859,14.034-9.651
	c2.259-1.123,4.106-1.697,5.521-1.697c1.346,0,2.022,0.6,2.022,1.798c0,0.207-0.038,0.438-0.095,0.68
	c-0.128,0.547-0.39,1.178-0.805,1.904c-1.95,3.521-8.354,12.099-19.215,25.732c-10.19,12.886-16.744,22.475-19.666,28.768
	c-0.75,1.723-1.124,3.297-1.124,4.719c0,1.349,0.299,2.658,0.899,3.933c0.824,1.647,1.872,2.922,3.147,3.821
	c0.824,0.598,1.349,0.486,1.573-0.337c2.172-8.614,10.412-21.874,24.722-39.779c8.765-10.937,14.31-18.165,16.632-21.688
	c2.357-3.66,3.775-6.871,4.274-9.648c3.815-0.833,6.886-1.251,9.206-1.251c3.222,0,4.833,1.236,4.833,3.708
	c0,3.371-3.56,9.141-10.676,17.305c-6.668,7.567-13.298,15.096-19.89,22.585c-7.117,8.841-10.676,15.808-10.676,20.901
	c0,5.768,2.698,8.652,8.092,8.652c9.439,0,22.324-9.4,38.656-28.205c-8.166,10.338-16.332,20.676-24.496,31.015
	c-9.367,12.136-15.583,21.237-18.654,27.306c-0.975,1.871-1.461,3.596-1.461,5.168c0,2.771,1.012,5.17,3.034,7.191
	c0.748,0.748,1.385,0.676,1.909-0.224c3.895-7.343,10.749-18.056,20.564-32.138c2.846-4.121,11.872-16.743,27.082-37.869
	c13.107-18.203,21.461-30.376,25.057-36.52c1.273-2.247,1.91-4.082,1.91-5.506C407,345.693,406.869,344.812,406.607,343.801z"/>
</svg>
